<svg width="12" height="24" viewBox="0 0 12 24" fill="none" xmlns="http://www.w3.org/2000/svg">
<rect x="5.25" y="3.25" width="1.5" height="4.5" fill="#F2F2F2" stroke="black" stroke-width="0.5"/>
<path d="M5.38229 2.74823L6.00333 1.32657L6.62437 2.74823H5.38229Z" fill="#F2F2F2" stroke="black" stroke-width="0.5"/>
<path d="M1.24638 9.62635V6.48576C3.10885 7.18172 4.56243 7.55131 6.02014 7.55822C7.47711 7.56513 8.91711 7.20971 10.7536 6.49205V9.62635H1.24638Z" fill="#F2F2F2" stroke="black" stroke-width="0.5"/>
<path d="M10.7427 8.25166L10.7636 11.3922C8.89654 10.7086 7.44053 10.3487 5.9828 10.3515C4.52582 10.3543 3.08822 10.7193 1.25652 11.4492L1.23565 8.31499L10.7427 8.25166Z" fill="#F2F2F2" stroke="black" stroke-width="0.5"/>
<path d="M5.12784 13.343C5.25527 12.0197 5.29805 10.8705 5.22909 10.1596H6.70086C6.6686 10.8435 6.73983 11.8795 6.8784 13.0695C7.19007 15.7459 7.85634 19.3088 8.56309 21.7062L3.44608 21.7062C4.2603 19.4806 4.87104 16.0097 5.12784 13.343ZM7.29993 9.59074C7.29995 9.59086 7.29924 9.59201 7.29774 9.59385C7.29915 9.59155 7.2999 9.59063 7.29993 9.59074Z" fill="#F2F2F2" stroke="black" stroke-width="0.5"/>
<rect x="3.02178" y="22.2062" width="5.95645" height="0.613896" fill="#F2F2F2" stroke="black" stroke-width="0.5"/>
</svg>
