<svg width="12" height="26" viewBox="0 0 12 26" fill="none" xmlns="http://www.w3.org/2000/svg">
<path d="M5.38229 4.74823L6.00333 3.32657L6.62437 4.74823H5.38229Z" fill="#E5E5E5" stroke="black" stroke-width="0.5"/>
<circle cx="6.00333" cy="4.99998" r="4.07067" fill="#E5E5E5" stroke="black" stroke-width="0.5"/>
<path d="M10.7427 10.2517L10.7636 13.3922C8.89654 12.7086 7.44053 12.3487 5.9828 12.3515C4.52582 12.3543 3.08822 12.7193 1.25652 13.4492L1.23565 10.315L10.7427 10.2517Z" fill="#E5E5E5" stroke="black" stroke-width="0.5"/>
<path d="M1.24637 11.6264V8.48576C3.10885 9.18172 4.56242 9.55131 6.02014 9.55822C7.47711 9.56513 8.91711 9.20971 10.7536 8.49205V11.6264H1.24637Z" fill="#E5E5E5" stroke="black" stroke-width="0.5"/>
<path d="M7.55362 8.60058C7.55362 8.60911 7.55032 8.64254 7.49036 8.69924C7.42988 8.75644 7.32894 8.81947 7.18348 8.87765C6.89394 8.99347 6.47681 9.07069 6.00334 9.07069C5.52986 9.07069 5.11273 8.99347 4.82319 8.87765C4.67773 8.81947 4.57679 8.75644 4.51631 8.69924C4.45635 8.64254 4.45305 8.60911 4.45305 8.60058C4.45305 8.59204 4.45635 8.55862 4.51631 8.50191C4.57679 8.44471 4.67773 8.38168 4.82319 8.3235C5.11273 8.20768 5.52986 8.13046 6.00334 8.13046C6.47681 8.13046 6.89394 8.20768 7.18348 8.3235C7.32894 8.38168 7.42988 8.44471 7.49036 8.50191C7.55032 8.55862 7.55362 8.59204 7.55362 8.60058Z" fill="#E5E5E5" stroke="black" stroke-width="0.5"/>
<rect x="5.125" y="8.42857" width="1.75" height="1.44642" fill="#E5E5E5" stroke="black" stroke-width="0.25"/>
<path d="M5.12784 15.343C5.25527 14.0197 5.29805 12.8705 5.22909 12.1596H6.70086C6.6686 12.8435 6.73983 13.8795 6.8784 15.0695C7.19007 17.7459 7.85634 21.3088 8.56309 23.7062L3.44608 23.7062C4.2603 21.4806 4.87104 18.0097 5.12784 15.343ZM7.29993 11.5907C7.29995 11.5909 7.29924 11.592 7.29774 11.5938C7.29915 11.5915 7.2999 11.5906 7.29993 11.5907Z" fill="#E5E5E5" stroke="black" stroke-width="0.5"/>
<rect x="3.02178" y="24.2062" width="5.95645" height="0.613896" fill="#E5E5E5" stroke="black" stroke-width="0.5"/>
<line x1="2.04271" y1="5.83015" x2="9.96395" y2="5.83015" stroke="black" stroke-width="0.5"/>
<line x1="2.40277" y1="6.91032" x2="9.6039" y2="6.91032" stroke="black" stroke-width="0.5"/>
</svg>
