<svg width="22" height="22" viewBox="0 0 22 22" fill="none" xmlns="http://www.w3.org/2000/svg">
<g id="Tama-Svg">
<circle id="Ellipse 1" cx="11" cy="11" r="9.56959" fill="#F2F2F2" stroke="black"/>
<line id="Line 1" x1="1.76955" y1="13.0174" x2="20.2305" y2="13.0174" stroke="black"/>
<line id="Line 2" x1="2.60868" y1="15.5348" x2="19.3913" y2="15.5348" stroke="black"/>
<path id="Ellipse 2" d="M14.6957 19.3913C14.6957 19.4413 14.6724 19.5394 14.5224 19.6813C14.3713 19.8242 14.1259 19.9759 13.7811 20.1138C13.0943 20.3885 12.1113 20.5696 11 20.5696C9.88873 20.5696 8.90569 20.3885 8.21892 20.1138C7.87415 19.9759 7.6287 19.8242 7.47761 19.6813C7.32759 19.5394 7.30434 19.4413 7.30434 19.3913C7.30434 19.3414 7.32759 19.2432 7.47761 19.1013C7.6287 18.9585 7.87415 18.8068 8.21892 18.6688C8.90569 18.3941 9.88873 18.2131 11 18.2131C12.1113 18.2131 13.0943 18.3941 13.7811 18.6688C14.1259 18.8068 14.3713 18.9585 14.5224 19.1013C14.6724 19.2432 14.6957 19.3414 14.6957 19.3913Z" fill="#F2F2F2" stroke="black"/>
</g>
</svg>
